Rokkitt-Light-FForge.ufo
<glyph name="parenleft" format="1">
  <advance width="500"/>
  <unicode hex="0028"/>
  <outline>
    <contour>
      <point x="474" y="-114" type="curve"/>
      <point x="476" y="-88" type="line"/>
      <point x="252" y="5"/>
      <point x="140" y="268"/>
      <point x="140" y="531" type="curve" smooth="yes"/>
      <point x="140" y="794"/>
      <point x="252" y="1057"/>
      <point x="476" y="1149" type="curve"/>
      <point x="474" y="1174" type="line"/>
      <point x="223" y="1086"/>
      <point x="97" y="807"/>
      <point x="97" y="529" type="curve" smooth="yes"/>
      <point x="97" y="250"/>
      <point x="223" y="-28"/>
    </contour>
  </outline>
</glyph>
<glyph name="five" format="1">
  <advance width="964"/>
  <unicode hex="0035"/>
  <outline>
    <contour>
      <point x="473" y="-22" type="curve" smooth="yes"/>
      <point x="745" y="-22"/>
      <point x="896" y="112"/>
      <point x="896" y="352" type="curve" smooth="yes"/>
      <point x="896" y="594"/>
      <point x="753" y="728"/>
      <point x="495" y="728" type="curve" smooth="yes"/>
      <point x="369" y="728"/>
      <point x="266" y="684"/>
      <point x="207" y="605" type="curve"/>
      <point x="208" y="1118" type="line"/>
      <point x="783" y="1118" type="line"/>
      <point x="783" y="920" type="line"/>
      <point x="826" y="920" type="line"/>
      <point x="826" y="1152" type="line"/>
      <point x="164" y="1152" type="line"/>
      <point x="164" y="585" type="line"/>
      <point x="210" y="567" type="line"/>
      <point x="283" y="650"/>
      <point x="395" y="692"/>
      <point x="495" y="692" type="curve" smooth="yes"/>
      <point x="726" y="692"/>
      <point x="854" y="571"/>
      <point x="854" y="352" type="curve" smooth="yes"/>
      <point x="854" y="135"/>
      <point x="718" y="14"/>
      <point x="473" y="14" type="curve" smooth="yes"/>
      <point x="336" y="14"/>
      <point x="214" y="80"/>
      <point x="131" y="200" type="curve"/>
      <point x="106" y="169" type="line"/>
      <point x="199" y="46"/>
      <point x="330" y="-22"/>
    </contour>
  </outline>
</glyph>
<glyph name="less" format="1">
  <advance width="896"/>
  <unicode hex="003C"/>
  <outline>
    <contour>
      <point x="757" y="-122" type="line"/>
      <point x="757" y="-50" type="line"/>
      <point x="6" y="566" type="line"/>
      <point x="757" y="1185" type="line"/>
      <point x="757" y="1261" type="line"/>
      <point x="-49" y="572" type="line"/>
      <point x="-49" y="559" type="line"/>
    </contour>
  </outline>
</glyph>
<glyph name="equal" format="1">
  <advance width="715"/>
  <unicode hex="003D"/>
  <outline>
    <contour>
      <point x="178" y="311" type="line"/>
      <point x="539" y="311" type="line"/>
      <point x="539" y="351" type="line"/>
      <point x="178" y="351" type="line"/>
    </contour>
    <contour>
      <point x="178" y="539" type="line"/>
      <point x="539" y="539" type="line"/>
      <point x="539" y="577" type="line"/>
      <point x="178" y="577" type="line"/>
    </contour>
  </outline>
</glyph>
<glyph name="greater" format="1">
  <advance width="896"/>
  <unicode hex="003E"/>
  <outline>
    <contour>
      <point x="141" y="-122" type="line"/>
      <point x="945" y="556" type="line"/>
      <point x="945" y="575" type="line"/>
      <point x="141" y="1261" type="line"/>
      <point x="141" y="1185" type="line"/>
      <point x="892" y="566" type="line"/>
      <point x="141" y="-50" type="line"/>
    </contour>
  </outline>
</glyph>
<glyph name="A" format="1">
  <advance width="1383"/>
  <unicode hex="0041"/>
  <outline>
    <contour>
      <point x="1145" y="0" type="move" name="ogonek"/>
    </contour>
    <contour>
      <point x="692" y="1152" type="move" name="top"/>
    </contour>
    <contour>
      <point x="92" y="0" type="line"/>
      <point x="442" y="0" type="line"/>
      <point x="442" y="34" type="line"/>
      <point x="294" y="34" type="line"/>
      <point x="462" y="488" type="line"/>
      <point x="922" y="488" type="line"/>
      <point x="1090" y="34" type="line"/>
      <point x="941" y="34" type="line"/>
      <point x="941" y="0" type="line"/>
      <point x="1291" y="0" type="line"/>
      <point x="1291" y="34" type="line"/>
      <point x="1136" y="34" type="line"/>
      <point x="732" y="1118" type="line"/>
      <point x="883" y="1118" type="line"/>
      <point x="883" y="1152" type="line"/>
      <point x="505" y="1152" type="line"/>
      <point x="505" y="1118" type="line"/>
      <point x="652" y="1118" type="line"/>
      <point x="247" y="34" type="line"/>
      <point x="92" y="34" type="line"/>
    </contour>
    <contour>
      <point x="472" y="520" type="line"/>
      <point x="690" y="1111" type="line"/>
      <point x="693" y="1111" type="line"/>
      <point x="912" y="520" type="line"/>
    </contour>
  </outline>
</glyph>
<glyph name="D" format="1">
  <advance width="1434"/>
  <unicode hex="0044"/>
  <outline>
    <component base="uc_main_stem" xOffset="16"/>
    <contour>
      <point x="319" y="592" type="move" name="mid"/>
    </contour>
    <contour>
      <point x="656" y="1152" type="move" name="top"/>
    </contour>
    <contour>
      <point x="328" y="0" type="line"/>
      <point x="832" y="0" type="line" smooth="yes"/>
      <point x="1148" y="0"/>
      <point x="1306" y="321"/>
      <point x="1306" y="570" type="curve" smooth="yes"/>
      <point x="1306" y="823"/>
      <point x="1156" y="1152"/>
      <point x="826" y="1152" type="curve" smooth="yes"/>
      <point x="328" y="1152" type="line"/>
      <point x="328" y="1118" type="line"/>
      <point x="828" y="1118" type="line" smooth="yes"/>
      <point x="1116" y="1118"/>
      <point x="1264" y="823"/>
      <point x="1264" y="570" type="curve" smooth="yes"/>
      <point x="1264" y="319"/>
      <point x="1116" y="34"/>
      <point x="822" y="34" type="curve" smooth="yes"/>
      <point x="328" y="34" type="line"/>
    </contour>
  </outline>
</glyph>
<glyph name="F" format="1">
  <advance width="1177"/>
  <unicode hex="0046"/>
  <outline>
    <component base="uc_main_stem" xOffset="16"/>
    <contour>
      <point x="649" y="1152" type="move" name="top"/>
    </contour>
    <contour>
      <point x="851" y="390" type="line"/>
      <point x="887" y="390" type="line"/>
      <point x="887" y="770" type="line"/>
      <point x="851" y="770" type="line"/>
      <point x="851" y="609" type="line"/>
      <point x="333" y="609" type="line"/>
      <point x="333" y="575" type="line"/>
      <point x="851" y="575" type="line"/>
    </contour>
    <contour>
      <point x="1039" y="796" type="line"/>
      <point x="1075" y="796" type="line"/>
      <point x="1075" y="1152" type="line"/>
      <point x="323" y="1152" type="line"/>
      <point x="323" y="1118" type="line"/>
      <point x="1039" y="1118" type="line"/>
    </contour>
  </outline>
</glyph>
<glyph name="H" format="1">
  <advance width="1506"/>
  <unicode hex="0048"/>
  <outline>
    <component base="uc_main_stem" xOffset="16"/>
    <component base="uc_main_stem" xOffset="865"/>
    <contour>
      <point x="752" y="0" type="move" name="bot"/>
    </contour>
    <contour>
      <point x="750" y="1152" type="move" name="top"/>
    </contour>
    <contour>
      <point x="326" y="564" type="line"/>
      <point x="1180" y="564" type="line"/>
      <point x="1181" y="598" type="line"/>
      <point x="327" y="598" type="line"/>
    </contour>
  </outline>
</glyph>
<glyph name="I" format="1">
  <advance width="626"/>
  <unicode hex="0049"/>
  <outline>
    <component base="uc_main_stem"/>
    <contour>
      <point x="312" y="0" type="move" name="ogonek"/>
    </contour>
    <contour>
      <point x="316" y="1152" type="move" name="top"/>
    </contour>
  </outline>
</glyph>
<glyph name="J" format="1">
  <advance width="551"/>
  <unicode hex="004A"/>
  <outline>
    <contour>
      <point x="346" y="1152" type="move" name="top"/>
    </contour>
    <contour>
      <point x="107" y="-40" type="line"/>
      <point x="212" y="-40" type="line" smooth="yes"/>
      <point x="313" y="-39"/>
      <point x="362" y="-20"/>
      <point x="362" y="161" type="curve" smooth="yes"/>
      <point x="362" y="1118" type="line"/>
      <point x="483" y="1118" type="line"/>
      <point x="483" y="1152" type="line"/>
      <point x="189" y="1152" type="line"/>
      <point x="189" y="1118" type="line"/>
      <point x="318" y="1118" type="line"/>
      <point x="318" y="173" type="line" smooth="yes"/>
      <point x="318" y="42"/>
      <point x="307" y="-6"/>
      <point x="229" y="-6" type="curve" smooth="yes"/>
      <point x="107" y="-6" type="line"/>
    </contour>
  </outline>
</glyph>
<glyph name="Q" format="1">
  <advance width="1438"/>
  <unicode hex="0051"/>
  <outline>
    <component base="O"/>
    <contour>
      <point x="1154" y="-174" type="curve"/>
      <point x="1143" y="-146" type="line"/>
      <point x="962" y="-206"/>
      <point x="907" y="-132"/>
      <point x="746" y="-4" type="curve"/>
      <point x="697" y="-6" type="line"/>
      <point x="893" y="-156"/>
      <point x="948" y="-245"/>
    </contour>
  </outline>
</glyph>
<glyph name="X" format="1">
  <advance width="1293"/>
  <unicode hex="0058"/>
  <outline>
    <contour>
      <point x="118" y="0" type="line"/>
      <point x="458" y="0" type="line"/>
      <point x="458" y="34" type="line"/>
      <point x="308" y="34" type="line"/>
      <point x="649" y="555" type="line"/>
      <point x="998" y="34" type="line"/>
      <point x="843" y="34" type="line"/>
      <point x="843" y="0" type="line"/>
      <point x="1180" y="0" type="line"/>
      <point x="1180" y="34" type="line"/>
      <point x="1033" y="34" type="line"/>
      <point x="668" y="585" type="line"/>
      <point x="1015" y="1118" type="line"/>
      <point x="1161" y="1118" type="line"/>
      <point x="1161" y="1152" type="line"/>
      <point x="814" y="1152" type="line"/>
      <point x="814" y="1118" type="line"/>
      <point x="966" y="1118" type="line"/>
      <point x="642" y="628" type="line"/>
      <point x="315" y="1118" type="line"/>
      <point x="469" y="1118" type="line"/>
      <point x="469" y="1152" type="line"/>
      <point x="130" y="1152" type="line"/>
      <point x="130" y="1118" type="line"/>
      <point x="278" y="1118" type="line"/>
      <point x="624" y="597" type="line"/>
      <point x="254" y="34" type="line"/>
      <point x="118" y="34" type="line"/>
    </contour>
  </outline>
</glyph>
<glyph name="bracketleft" format="1">
  <advance width="318"/>
  <unicode hex="005B"/>
  <outline>
    <contour>
      <point x="157" y="-127" type="line"/>
      <point x="317" y="-127" type="line"/>
      <point x="317" y="-88" type="line"/>
      <point x="207" y="-88" type="line"/>
      <point x="207" y="1152" type="line"/>
      <point x="317" y="1152" type="line"/>
      <point x="317" y="1189" type="line"/>
      <point x="157" y="1189" type="line"/>
    </contour>
  </outline>
</glyph>
<glyph name="backslash" format="1">
  <advance width="296"/>
  <unicode hex="005C"/>
  <outline>
    <contour>
      <point x="272" y="-25" type="line"/>
      <point x="320" y="-25" type="line"/>
      <point x="7" y="1172" type="line"/>
      <point x="-35" y="1172" type="line"/>
    </contour>
  </outline>
</glyph>
<glyph name="bracketright" format="1">
  <advance width="316"/>
  <unicode hex="005D"/>
  <outline>
    <contour>
      <point x="-10" y="-127" type="line"/>
      <point x="150" y="-127" type="line"/>
      <point x="150" y="1189" type="line"/>
      <point x="-10" y="1189" type="line"/>
      <point x="-10" y="1152" type="line"/>
      <point x="100" y="1152" type="line"/>
      <point x="100" y="-88" type="line"/>
      <point x="-10" y="-88" type="line"/>
    </contour>
  </outline>
</glyph>
<glyph name="underscore" format="1">
  <advance width="762"/>
  <unicode hex="005F"/>
  <outline>
    <contour>
      <point x="48" y="-123" type="line"/>
      <point x="714" y="-123" type="line"/>
      <point x="714" y="-87" type="line"/>
      <point x="48" y="-87" type="line"/>
    </contour>
  </outline>
</glyph>
<glyph name="grave" format="1">
  <advance width="137"/>
  <unicode hex="0060"/>
  <outline>
    <contour>
      <point x="133" y="804" type="move" name="_top"/>
    </contour>
    <contour>
      <point x="116" y="991" type="line"/>
      <point x="137" y="991" type="line"/>
      <point x="50" y="1236" type="line"/>
      <point x="8" y="1236" type="line"/>
    </contour>
  </outline>
</glyph>
<glyph name="d" format="1">
  <advance width="1011"/>
  <unicode hex="0064"/>
  <outline>
    <component base="lc_ascender_stem_2" xOffset="562"/>
    <component base="lc_bowl_left" xOffset="-74"/>
    <contour>
      <point x="816" y="804" type="move" name="caron.alt"/>
    </contour>
    <contour>
      <point x="479" y="804" type="move" name="top"/>
    </contour>
    <contour>
      <point x="806" y="969" type="move" name="mid"/>
    </contour>
  </outline>
</glyph>
<glyph name="e" format="1">
  <advance width="975"/>
  <unicode hex="0065"/>
  <outline>
    <contour>
      <point x="555" y="0" type="move" name="ogonek"/>
    </contour>
    <contour>
      <point x="502" y="0" type="move" name="bot"/>
    </contour>
    <contour>
      <point x="485" y="-22" type="curve" smooth="yes"/>
      <point x="604" y="-22"/>
      <point x="735" y="25"/>
      <point x="840" y="129" type="curve"/>
      <point x="827" y="166" type="line"/>
      <point x="758" y="81"/>
      <point x="614" y="12"/>
      <point x="485" y="12" type="curve" smooth="yes"/>
      <point x="305" y="12"/>
      <point x="118" y="140"/>
      <point x="107" y="390" type="curve"/>
      <point x="860" y="390" type="line"/>
      <point x="852" y="718"/>
      <point x="642" y="826"/>
      <point x="466" y="826" type="curve" smooth="yes"/>
      <point x="269" y="826"/>
      <point x="63" y="687"/>
      <point x="63" y="403" type="curve" smooth="yes"/>
      <point x="63" y="133"/>
      <point x="269" y="-22"/>
    </contour>
    <contour>
      <point x="106" y="424" type="line"/>
      <point x="113" y="649"/>
      <point x="273" y="792"/>
      <point x="466" y="792" type="curve" smooth="yes"/>
      <point x="638" y="792"/>
      <point x="796" y="678"/>
      <point x="820" y="424" type="curve"/>
    </contour>
  </outline>
</glyph>
<glyph name="l" format="1">
  <advance width="445"/>
  <unicode hex="006C"/>
  <outline>
    <component base="lc_ascender_stem" xOffset="-26"/>
    <contour>
      <point x="436" y="636" type="move" name="mid"/>
    </contour>
    <contour>
      <point x="232" y="0" type="move" name="bot"/>
    </contour>
    <contour>
      <point x="227" y="1152" type="move" name="top"/>
    </contour>
  </outline>
</glyph>
<glyph name="p" format="1">
  <advance width="1037"/>
  <unicode hex="0070"/>
  <outline>
    <component base="lc_bowl_right" xOffset="-51"/>
    <component base="lc_descender_stem" xOffset="-38"/>
    <contour>
      <point x="563" y="805" type="move" name="top"/>
    </contour>
  </outline>
</glyph>
<glyph name="q" format="1">
  <advance width="1049"/>
  <unicode hex="0071"/>
  <outline>
    <component base="lc_bowl_left" xOffset="-74"/>
    <contour>
      <point x="658" y="-330" type="line"/>
      <point x="975" y="-330" type="line"/>
      <point x="975" y="-296" type="line"/>
      <point x="837" y="-296" type="line"/>
      <point x="837" y="770" type="line"/>
      <point x="966" y="770" type="line"/>
      <point x="966" y="804" type="line"/>
      <point x="799" y="804" type="line"/>
      <point x="793" y="684" type="line"/>
      <point x="793" y="-296" type="line"/>
      <point x="658" y="-296" type="line"/>
    </contour>
  </outline>
</glyph>
<glyph name="brokenbar" format="1">
  <advance width="418"/>
  <unicode hex="00A6"/>
  <outline>
    <contour>
      <point x="184" y="-26" type="line"/>
      <point x="231" y="-26" type="line"/>
      <point x="231" y="544" type="line"/>
      <point x="184" y="544" type="line"/>
    </contour>
    <contour>
      <point x="184" y="725" type="line"/>
      <point x="231" y="725" type="line"/>
      <point x="231" y="1296" type="line"/>
      <point x="184" y="1296" type="line"/>
    </contour>
  </outline>
</glyph>
<glyph name="macron" format="1">
  <advance width="316"/>
  <unicode hex="00AF"/>
  <outline>
    <contour>
      <point x="164" y="804" type="move" name="_top"/>
    </contour>
    <contour>
      <point x="162" y="935" type="move" name="_mid"/>
    </contour>
    <contour>
      <point x="-22" y="918" type="line"/>
      <point x="347" y="918" type="line"/>
      <point x="347" y="950" type="line"/>
      <point x="-22" y="950" type="line"/>
    </contour>
  </outline>
</glyph>
<glyph name="uni00B5" format="1">
  <advance width="1025"/>
  <unicode hex="00B5"/>
  <outline>
    <component base="u"/>
    <contour>
      <point x="199" y="-261" type="line"/>
      <point x="243" y="-261" type="line"/>
      <point x="243" y="365" type="line"/>
      <point x="199" y="365" type="line"/>
    </contour>
  </outline>
</glyph>
<glyph name="periodcentered" format="1">
  <advance width="453"/>
  <unicode hex="00B7"/>
  <outline>
    <contour>
      <point x="237" y="554" type="move" name="_mid"/>
    </contour>
    <contour>
      <point x="236" y="512" type="curve" smooth="yes"/>
      <point x="264" y="512"/>
      <point x="283" y="529"/>
      <point x="283" y="554" type="curve" smooth="yes"/>
      <point x="283" y="578"/>
      <point x="264" y="595"/>
      <point x="236" y="595" type="curve" smooth="yes"/>
      <point x="210" y="595"/>
      <point x="192" y="578"/>
      <point x="192" y="554" type="curve" smooth="yes"/>
      <point x="192" y="529"/>
      <point x="210" y="512"/>
    </contour>
  </outline>
</glyph>
<glyph name="oslash" format="1">
  <advance width="1023"/>
  <unicode hex="00F8"/>
  <outline>
    <component base="o"/>
    <contour>
      <point x="187" y="-193" type="line"/>
      <point x="890" y="979" type="line"/>
      <point x="870" y="995" type="line"/>
      <point x="168" y="-176" type="line"/>
    </contour>
  </outline>
</glyph>
<glyph name="thorn" format="1">
  <advance width="1026"/>
  <unicode hex="00FE"/>
  <outline>
    <component base="lc_bowl_right" xOffset="-62" yOffset="21"/>
    <contour>
      <point x="21" y="-383" type="line"/>
      <point x="239" y="-383" type="line"/>
      <point x="243" y="1152" type="line"/>
      <point x="43" y="1152" type="line"/>
      <point x="43" y="1114" type="line"/>
      <point x="195" y="1114" type="line"/>
      <point x="195" y="-348" type="line"/>
      <point x="21" y="-348" type="line"/>
    </contour>
  </outline>
</glyph>
<glyph name="dotlessi" format="1">
  <advance width="537"/>
  <unicode hex="0131"/>
  <outline>
    <component base="lc_xheight_stem" xOffset="3"/>
    <contour>
      <point x="303" y="0" type="move" name="ogonek"/>
    </contour>
    <contour>
      <point x="283" y="804" type="move" name="top"/>
    </contour>
  </outline>
</glyph>
<glyph name="lslash" format="1">
  <advance width="445"/>
  <unicode hex="0142"/>
  <outline>
    <component base="l"/>
    <contour>
      <point x="53" y="460" type="line"/>
      <point x="393" y="679" type="line"/>
      <point x="393" y="727" type="line"/>
      <point x="52" y="506" type="line"/>
    </contour>
  </outline>
</glyph>
<glyph name="dblgravecmb" format="1">
  <advance width="643"/>
  <unicode hex="030F"/>
  <outline>
    <contour>
      <point x="323" y="804" type="move" name="_top"/>
    </contour>
    <contour>
      <point x="206" y="991" type="line"/>
      <point x="227" y="991" type="line"/>
      <point x="120" y="1286" type="line"/>
      <point x="78" y="1286" type="line"/>
    </contour>
    <contour>
      <point x="386" y="991" type="line"/>
      <point x="407" y="991" type="line"/>
      <point x="300" y="1286" type="line"/>
      <point x="258" y="1286" type="line"/>
    </contour>
  </outline>
</glyph>
<glyph name="commaturnedabovecomb" format="1">
  <advance width="600"/>
  <unicode hex="0312"/>
  <outline>
    <contour>
      <point x="294" y="804" type="move" name="_top"/>
    </contour>
    <contour>
      <point x="330" y="932" type="line"/>
      <point x="330" y="1029" type="line"/>
      <point x="281" y="1029" type="line"/>
      <point x="281" y="1141"/>
      <point x="290" y="1162"/>
      <point x="340" y="1168" type="curve"/>
      <point x="340" y="1186" type="line"/>
      <point x="258" y="1186"/>
      <point x="248" y="1114"/>
      <point x="248" y="1035" type="curve" smooth="yes"/>
      <point x="247" y="933" type="line"/>
    </contour>
  </outline>
</glyph>
<glyph name="quoteright" format="1">
  <advance width="409"/>
  <unicode hex="2019"/>
  <outline>
    <contour>
      <point x="174" y="1030" type="line"/>
      <point x="255" y="1031"/>
      <point x="278" y="1106"/>
      <point x="278" y="1179" type="curve" smooth="yes"/>
      <point x="278" y="1266" type="line"/>
      <point x="188" y="1266" type="line"/>
      <point x="188" y="1183" type="line"/>
      <point x="229" y="1183" type="line"/>
      <point x="229" y="1105"/>
      <point x="234" y="1080"/>
      <point x="174" y="1058" type="curve"/>
    </contour>
  </outline>
</glyph>
<glyph name="daggerdbl" format="1">
  <advance width="486"/>
  <unicode hex="2021"/>
  <outline>
    <contour>
      <point x="202" y="17" type="line"/>
      <point x="286" y="17" type="line"/>
      <point x="260" y="308" type="line"/>
      <point x="472" y="295" type="line"/>
      <point x="472" y="351" type="line"/>
      <point x="256" y="331" type="line"/>
      <point x="266" y="391"/>
      <point x="275" y="459"/>
      <point x="275" y="603" type="curve" smooth="yes"/>
      <point x="275" y="750"/>
      <point x="266" y="828"/>
      <point x="256" y="891" type="curve"/>
      <point x="472" y="871" type="line"/>
      <point x="472" y="927" type="line"/>
      <point x="260" y="914" type="line"/>
      <point x="286" y="1205" type="line"/>
      <point x="202" y="1205" type="line"/>
      <point x="229" y="914" type="line"/>
      <point x="13" y="927" type="line"/>
      <point x="13" y="871" type="line"/>
      <point x="233" y="891" type="line"/>
      <point x="221" y="829"/>
      <point x="214" y="755"/>
      <point x="214" y="610" type="curve" smooth="yes"/>
      <point x="214" y="465"/>
      <point x="221" y="392"/>
      <point x="233" y="331" type="curve"/>
      <point x="13" y="351" type="line"/>
      <point x="13" y="295" type="line"/>
      <point x="229" y="308" type="line"/>
    </contour>
  </outline>
</glyph>
<glyph name="bullet" format="1">
  <advance width="768"/>
  <unicode hex="2022"/>
  <outline>
    <contour>
      <point x="384" y="472" type="curve" smooth="yes"/>
      <point x="527" y="472"/>
      <point x="641" y="582"/>
      <point x="641" y="719" type="curve" smooth="yes"/>
      <point x="641" y="858"/>
      <point x="527" y="965"/>
      <point x="384" y="965" type="curve" smooth="yes"/>
      <point x="240" y="965"/>
      <point x="128" y="857"/>
      <point x="128" y="719" type="curve" smooth="yes"/>
      <point x="128" y="584"/>
      <point x="240" y="472"/>
    </contour>
  </outline>
</glyph>
<glyph name="fraction" format="1">
  <advance width="337"/>
  <unicode hex="2044"/>
  <outline>
    <contour>
      <point x="-35" y="-25" type="line"/>
      <point x="19" y="-25" type="line"/>
      <point x="360" y="1289" type="line"/>
      <point x="312" y="1289" type="line"/>
    </contour>
  </outline>
</glyph>
<glyph name="emptyset" format="1">
  <advance width="1347"/>
  <unicode hex="2205"/>
  <outline>
    <contour>
      <point x="230" y="-42.0001" type="line"/>
      <point x="341.765" y="89.7186" type="line"/>
      <point x="433.713" y="19.6286"/>
      <point x="548.514" y="-22.0001"/>
      <point x="673" y="-22.0001" type="curve" smooth="yes"/>
      <point x="975" y="-22.0001"/>
      <point x="1221" y="223"/>
      <point x="1221" y="525" type="curve" smooth="yes"/>
      <point x="1221" y="681.634"/>
      <point x="1154.82" y="823.203"/>
      <point x="1048.98" y="923.2" type="curve"/>
      <point x="1171" y="1067" type="line"/>
      <point x="1145" y="1092" type="line"/>
      <point x="1022.02" y="947.063" type="line"/>
      <point x="927.139" y="1025.68"/>
      <point x="805.456" y="1073"/>
      <point x="673" y="1073" type="curve" smooth="yes"/>
      <point x="371" y="1073"/>
      <point x="126" y="827"/>
      <point x="126" y="525" type="curve" smooth="yes"/>
      <point x="126" y="360.42"/>
      <point x="198.762" y="212.768"/>
      <point x="313.859" y="112.473" type="curve"/>
      <point x="204" y="-17.0001" type="line"/>
    </contour>
    <contour>
      <point x="339.25" y="142.397" type="line"/>
      <point x="232.543" y="235.609"/>
      <point x="165" y="372.602"/>
      <point x="165" y="525" type="curve" smooth="yes"/>
      <point x="165" y="805"/>
      <point x="393" y="1034"/>
      <point x="673" y="1034" type="curve" smooth="yes"/>
      <point x="795.65" y="1034"/>
      <point x="908.513" y="990.06"/>
      <point x="996.631" y="917.142" type="curve"/>
    </contour>
    <contour>
      <point x="673" y="16.9998" type="curve" smooth="yes"/>
      <point x="558.303" y="16.9998"/>
      <point x="452.333" y="55.2579"/>
      <point x="367.184" y="119.676" type="curve"/>
      <point x="1023.55" y="893.23" type="line"/>
      <point x="1121.03" y="800.365"/>
      <point x="1182" y="669.471"/>
      <point x="1182" y="525" type="curve" smooth="yes"/>
      <point x="1182" y="245"/>
      <point x="953" y="16.9998"/>
    </contour>
  </outline>
</glyph>
<glyph name="notequal" format="1">
  <advance width="793"/>
  <unicode hex="2260"/>
  <outline>
    <contour>
      <point x="298" y="88" type="line"/>
      <point x="330" y="88" type="line"/>
      <point x="378" y="269" type="line"/>
      <point x="723" y="269" type="line"/>
      <point x="723" y="296" type="line"/>
      <point x="386" y="296" type="line"/>
      <point x="447" y="529" type="line"/>
      <point x="713" y="529" type="line"/>
      <point x="713" y="561" type="line"/>
      <point x="454" y="561" type="line"/>
      <point x="502" y="740" type="line"/>
      <point x="474" y="740" type="line"/>
      <point x="425" y="561" type="line"/>
      <point x="80" y="561" type="line"/>
      <point x="80" y="529" type="line"/>
      <point x="416" y="529" type="line"/>
      <point x="355" y="296" type="line"/>
      <point x="90" y="296" type="line"/>
      <point x="90" y="269" type="line"/>
      <point x="347" y="269" type="line"/>
    </contour>
  </outline>
</glyph>
<glyph name="lessequal" format="1">
  <advance width="593"/>
  <unicode hex="2264"/>
  <outline>
    <contour>
      <point x="607" y="182" type="line"/>
      <point x="607" y="222" type="line"/>
      <point x="68" y="507" type="line"/>
      <point x="607" y="793" type="line"/>
      <point x="607" y="836" type="line"/>
      <point x="-4" y="519" type="line"/>
      <point x="-4" y="496" type="line"/>
    </contour>
    <contour>
      <point x="-4" y="0" type="line"/>
      <point x="607" y="0" type="line"/>
      <point x="607" y="33" type="line"/>
      <point x="-4" y="33" type="line"/>
    </contour>
  </outline>
</glyph>
<glyph name="fi" format="1">
  <advance width="1044"/>
  <unicode hex="FB01"/>
  <outline>
    <contour>
      <point x="114" y="0" type="line"/>
      <point x="528" y="0" type="line"/>
      <point x="528" y="34" type="line"/>
      <point x="326" y="34" type="line"/>
      <point x="326" y="770" type="line"/>
      <point x="835" y="770" type="line"/>
      <point x="835" y="34" type="line"/>
      <point x="682" y="34" type="line"/>
      <point x="682" y="0" type="line"/>
      <point x="1036" y="0" type="line"/>
      <point x="1036" y="34" type="line"/>
      <point x="879" y="34" type="line"/>
      <point x="879" y="804" type="line"/>
      <point x="326" y="804" type="line"/>
      <point x="326" y="952" type="line" smooth="yes"/>
      <point x="326" y="1083"/>
      <point x="449" y="1166"/>
      <point x="644" y="1166" type="curve" smooth="yes"/>
      <point x="708" y="1166"/>
      <point x="810" y="1152"/>
      <point x="831" y="1101" type="curve"/>
      <point x="803" y="1096"/>
      <point x="792" y="1073"/>
      <point x="792" y="1052" type="curve" smooth="yes"/>
      <point x="792" y="1026"/>
      <point x="816" y="1009"/>
      <point x="850" y="1009" type="curve" smooth="yes"/>
      <point x="883" y="1009"/>
      <point x="901" y="1031"/>
      <point x="901" y="1065" type="curve" smooth="yes"/>
      <point x="901" y="1149"/>
      <point x="803" y="1202"/>
      <point x="648" y="1202" type="curve" smooth="yes"/>
      <point x="423" y="1202"/>
      <point x="282" y="1105"/>
      <point x="282" y="950" type="curve" smooth="yes"/>
      <point x="282" y="804" type="line"/>
      <point x="109" y="804" type="line"/>
      <point x="109" y="770" type="line"/>
      <point x="282" y="770" type="line"/>
      <point x="282" y="34" type="line"/>
      <point x="114" y="34" type="line"/>
    </contour>
  </outline>
</glyph>
<glyph name="ffl" format="1">
  <advance width="1801"/>
  <outline>
    <component base="fl" xOffset="578"/>
    <contour>
      <point x="100" y="0" type="line"/>
      <point x="491" y="0" type="line"/>
      <point x="491" y="34" type="line"/>
      <point x="298" y="34" type="line"/>
      <point x="298" y="770" type="line"/>
      <point x="741" y="770" type="line"/>
      <point x="741" y="804" type="line"/>
      <point x="298" y="804" type="line"/>
      <point x="298" y="1011" type="line" smooth="yes"/>
      <point x="298" y="1111"/>
      <point x="399" y="1173"/>
      <point x="560" y="1173" type="curve" smooth="yes"/>
      <point x="660" y="1173"/>
      <point x="789" y="1132"/>
      <point x="894" y="1067" type="curve"/>
      <point x="919" y="1092" type="line"/>
      <point x="807" y="1163"/>
      <point x="667" y="1208"/>
      <point x="556" y="1208" type="curve" smooth="yes"/>
      <point x="370" y="1208"/>
      <point x="254" y="1130"/>
      <point x="254" y="1005" type="curve" smooth="yes"/>
      <point x="254" y="804" type="line"/>
      <point x="95" y="804" type="line"/>
      <point x="95" y="770" type="line"/>
      <point x="254" y="770" type="line"/>
      <point x="254" y="34" type="line"/>
      <point x="100" y="34" type="line"/>
    </contour>
  </outline>
</glyph>
<glyph name="lc_descender_stem" format="1">
  <advance width="1192"/>
  <outline>
    <contour>
      <point x="103" y="-316" type="line"/>
      <point x="421" y="-316" type="line"/>
      <point x="421" y="-282" type="line"/>
      <point x="287" y="-282" type="line"/>
      <point x="288" y="682" type="line"/>
      <point x="287" y="804" type="line"/>
      <point x="119" y="804" type="line"/>
      <point x="119" y="770" type="line"/>
      <point x="243" y="770" type="line"/>
      <point x="243" y="-282" type="line"/>
      <point x="103" y="-282" type="line"/>
    </contour>
  </outline>
</glyph>
